# xmcd
#
# Track frame offsets:
#	150
#	21529
#	38135
#	54563
#	71211
#	95917
#	109822
#	123564
#	135373
#	154252
#	168868
#
# Disc length: 2487 seconds
# Revision: 0
# Processed by: cddbd v1.5.2PL0 Copyright (c) Steve Scherf et al.
# Submitted via: dBpowerAMP V12.0
#
DISCID=9d09b50b
DTITLE=Mick Abrahams - Working In The Blues Kitchen
DYEAR=1900
DGENRE=Blues
TTITLE0=Ain't No Smoke
TTITLE1=Ayers And Graces
TTITLE2=Chettishes
TTITLE3=Don't take The Mike
TTITLE4=Heartbreak Blues
TTITLE5=Mercy Mercy
TTITLE6=Nothing But Everything
TTITLE7=One Night With You
TTITLE8=What Kinda Fool
TTITLE9=Long Gone
TTITLE10=Redways
EXTD=
EXTT0=
EXTT1=
EXTT2=
EXTT3=
EXTT4=
EXTT5=
EXTT6=
EXTT7=
EXTT8=
EXTT9=
EXTT10=
PLAYORDER=
